<?xml version="1.0" ?><!DOCTYPE svg  PUBLIC '-//W3C//DTD SVG 1.1//EN'  'http://www.w3.org/Graphics/SVG/1.1/DTD/svg11.dtd' [
	<!ENTITY stroke_color "#666666">
	<!ENTITY fill_color "#ffffff">
]><svg height="55" id="svg3051" version="1.1" viewBox="0 0 55px 55px" width="55" xmlns="http://www.w3.org/2000/svg" xmlns:cc="http://creativecommons.org/ns#" xmlns:dc="http://purl.org/dc/elements/1.1/" xmlns:rdf="http://www.w3.org/1999/02/22-rdf-syntax-ns#" xmlns:svg="http://www.w3.org/2000/svg">
  <metadata id="metadata3067">
    <rdf:RDF>
      <cc:Work rdf:about="">
        <dc:format>image/svg+xml</dc:format>
        <dc:type rdf:resource="http://purl.org/dc/dcmitype/StillImage"/>
        <dc:title/>
      </cc:Work>
    </rdf:RDF>
  </metadata>
  <defs id="defs3065"/>
  <path d="m 7,14 5,-5 10,0 5,5 20,0 0,31 -40,0 z" id="path3053" style="fill:&fill_color;;stroke:&stroke_color;;stroke-width:3;stroke-linecap:round;stroke-linejoin:round;stroke-opacity:1"/>
  <path d="m 27,18.514667 c -5.909806,0 -10.701,4.791194 -10.701,10.701 0,5.910281 4.791194,10.701 10.701,10.701 5.910281,0 10.701,-4.790719 10.701,-10.701 0,-5.909806 -4.790719,-10.701 -10.701,-10.701 z m 4.805462,4.234742 c 0.996858,0 1.804902,0.808045 1.804902,1.804427 0,0.996857 -0.808044,1.804426 -1.804902,1.804426 -0.996857,0 -1.804426,-0.808044 -1.804426,-1.804426 0,-0.996382 0.80852,-1.804427 1.804426,-1.804427 z m -13.306337,6.466734 c 0,-0.998285 0.80852,-1.806805 1.803951,-1.806805 0.997334,0 1.805378,0.80852 1.805378,1.806805 0,0.996382 -0.80852,1.80395 -1.805378,1.80395 -0.996382,0 -1.803951,-0.807568 -1.803951,-1.80395 z m 3.693035,6.465782 c -0.995432,0 -1.803952,-0.806142 -1.803952,-1.803476 0,-0.998284 0.808996,-1.805377 1.803952,-1.805377 0.998284,0 1.806804,0.806617 1.806804,1.805377 -4.76e-4,0.996382 -0.808996,1.803476 -1.806804,1.803476 z m 0.146009,-9.464916 c -0.995907,0 -1.804903,-0.80852 -1.804903,-1.806804 0,-0.996858 0.808521,-1.804902 1.804903,-1.804902 0.998284,0 1.805377,0.808995 1.805377,1.804902 4.76e-4,0.998284 -0.806617,1.806804 -1.805377,1.806804 z m 4.661355,11.499532 c -0.99876,0 -1.805853,-0.80852 -1.805853,-1.804426 0,-0.997809 0.806618,-1.805853 1.805853,-1.805853 0.996382,0 1.804427,0.808044 1.804427,1.805853 0,0.996858 -0.808045,1.804426 -1.804427,1.804426 z m 9.52e-4,-13.391469 c -0.996858,0 -1.804902,-0.808044 -1.804902,-1.804902 0,-0.996857 0.808044,-1.804902 1.804902,-1.804902 0.997333,0 1.804902,0.808045 1.804902,1.804902 0,0.996858 -0.807569,1.804902 -1.804902,1.804902 z m 4.66088,11.501911 c -0.996858,0 -1.804902,-0.808045 -1.804902,-1.804902 0,-0.996858 0.808044,-1.804427 1.804902,-1.804427 0.996857,0 1.804426,0.807569 1.804426,1.804427 0,0.996857 -0.808044,1.804902 -1.804426,1.804902 z m 2.035568,-4.804987 c -0.996858,0 -1.804902,-0.807569 -1.804902,-1.804902 0,-0.996858 0.808044,-1.803951 1.806804,-1.803951 0.995906,0 1.803,0.807093 1.803,1.803951 0,0.997333 -0.807094,1.804902 -1.804902,1.804902 z" id="zoom-neighborhood" style="fill:&stroke_color;;fill-opacity:1"/>
</svg>
