<?xml version="1.0" ?>
<!-- Created with Inkscape (http://www.inkscape.org/) --><!DOCTYPE svg
  PUBLIC '-//W3C//DTD SVG 1.1//EN'
  'http://www.w3.org/Graphics/SVG/1.1/DTD/svg11.dtd' [
	<!ENTITY stroke_color "#010101">
	<!ENTITY fill_color "#ffffff">
]>
<svg height="55" id="Layer_1" version="1.1" viewBox="0 0 55 55" width="55" xml:space="preserve" xmlns="http://www.w3.org/2000/svg" xmlns:svg="http://www.w3.org/2000/svg"><defs id="defs9"/><g id="computer" style="display:block">
	<path d="m 51.322,41.549 h 0.002 l -0.022,-0.018 c -0.15,-0.109 -12.64,-7.878 -12.64,-7.878 V 9.734 c 0,-1.618 -1.31,-2.932 -2.929,-2.932 h -30.9 c -1.619,0 -2.931,1.314 -2.931,2.932 v 26.313 c 0,1.096 0.608,2.037 1.498,2.541 l -0.02,0.004 14.603,9.102 c 0.691,0.436 1.528,0.688 2.428,0.688 h 28.212 c 2.352,0 4.278,-1.733 4.278,-3.85 10e-4,-1.202 -0.618,-2.275 -1.579,-2.983 z" id="module-about_x5F_my_x5F_xo" style="fill:&fill_color;;stroke:&stroke_color;;stroke-width:3.48670006;stroke-linejoin:round"/>
	<path d="m 7.604,13.446 c 0,-0.616 0.504,-1.12 1.12,-1.12 h 23.117 c 0.615,0 1.118,0.503 1.118,1.12 v 16.499 c 0,0.614 -0.503,1.122 -1.118,1.122 H 8.723 c -0.615,0 -1.12,-0.508 -1.12,-1.122 l 0.001,-16.499 0,0 z" id="path5" style="fill:&stroke_color;"/>
</g><g id="g3651"><circle cx="16" cy="16.5" r="1" stroke="&fill_color;" fill="&fill_color;" stroke-width="2" /><circle cx="26" cy="16.5" r="1" stroke="&fill_color;" fill="&fill_color;" stroke-width="2" /><path d="m 21,20 0,0.6 0,0" id="path3643" style="fill:&fill_color;;fill-opacity:1;stroke:&fill_color;;stroke-width:3.5;stroke-linecap:round;stroke-linejoin:miter;stroke-miterlimit:4;stroke-opacity:1;stroke-dasharray:none"/><path d="m -15.592733,31.913593 a 7,5 0 0 0 -12.796629,0.02882" id="path3649" style="fill:&stroke_color;;fill-opacity:1;stroke:&fill_color;;stroke-width:3.25;stroke-linecap:round;stroke-miterlimit:4;stroke-opacity:1;stroke-dasharray:none" transform="translate(43,-4)"/><path d="m 48,7 c 0,0 -4,6 -4,12 0,2 2.333333,3 4,3 1.666667,0 4,-1 4,-3 C 52,13 48,7 48,7 l 0,0" id="path3746" style="fill:&stroke_color;;fill-opacity:1;stroke:none"/></g></svg>
